HIERARCHY
ROOT SpineBase
{
  OFFSET 0.000000 0.000000 0.000000
  CHANNELS 6 Xposition Yposition Zposition Zrotation Xrotation Yrotation
  JOINT SpineMid
  {
    OFFSET 0.000000 29.707067 0.000000
    CHANNELS 3 Zrotation Xrotation Yrotation
    JOINT SpineShoulder
    {
      OFFSET 0.331651 22.165306 -0.520500
      CHANNELS 3 Zrotation Xrotation Yrotation
      JOINT Neck
      {
        OFFSET 0.196271 7.376750 -0.507454
        CHANNELS 3 Zrotation Xrotation Yrotation
        JOINT Head
        {
          OFFSET 5.005202 13.115734 1.836840
          CHANNELS 3 Zrotation Xrotation Yrotation
          End Site
          {
            OFFSET 0 0 0
          }
        }
      }
      JOINT ShoulderLeft
      {
        OFFSET -8.335864 -3.042940 -13.353583
        CHANNELS 3 Zrotation Xrotation Yrotation
        JOINT ElbowLeft
        {
          OFFSET -4.335985 -25.181440 -4.966077
          CHANNELS 3 Zrotation Xrotation Yrotation
          JOINT WristLeft
          {
            OFFSET 4.563448 -23.716786 -2.174450
            CHANNELS 3 Zrotation Xrotation Yrotation
            JOINT HandLeft
            {
              OFFSET 1.586322 -4.155670 0.072463
              CHANNELS 3 Zrotation Xrotation Yrotation
              JOINT HandTipLeft
              {
                OFFSET 0.462833 -6.536936 1.012911
                CHANNELS 3 Zrotation Xrotation Yrotation
                End Site
                {
                  OFFSET 0 0 0
                }
              }
              JOINT ThumbLeft
              {
                OFFSET 2.836647 1.652863 0.206416
                CHANNELS 3 Zrotation Xrotation Yrotation
                End Site
                {
                  OFFSET 0 0 0
                }
              }
            }
          }
        }
      }
      JOINT ShoulderRight
      {
        OFFSET 9.977529 -5.304868 11.317260
        CHANNELS 3 Zrotation Xrotation Yrotation
        JOINT ElbowRight
        {
          OFFSET 0.736649 -27.906248 8.087661
          CHANNELS 3 Zrotation Xrotation Yrotation
          JOINT WristRight
          {
            OFFSET 1.587100 -22.410904 -4.660081
            CHANNELS 3 Zrotation Xrotation Yrotation
            JOINT HandRight
            {
              OFFSET -1.188381 -3.887044 -0.670166
              CHANNELS 3 Zrotation Xrotation Yrotation
              JOINT HandTipRight
              {
                OFFSET -0.723009 -4.374555 -1.804593
                CHANNELS 3 Zrotation Xrotation Yrotation
                End Site
                {
                  OFFSET 0 0 0
                }
              }
              JOINT ThumbRight
              {
                OFFSET 2.825539 -0.199951 -0.443124
                CHANNELS 3 Zrotation Xrotation Yrotation
                End Site
                {
                  OFFSET 0 0 0
                }
              }
            }
          }
        }
      }
    }
  }
  JOINT HipLeft
  {
    OFFSET -3.747252 2.338095 -8.523404
    CHANNELS 3 Zrotation Xrotation Yrotation
    JOINT KneeLeft
    {
      OFFSET -7.003841 -27.359523 -0.537123
      CHANNELS 3 Zrotation Xrotation Yrotation
      JOINT AnkleLeft
      {
        OFFSET -7.766182 -33.845560 4.428924
        CHANNELS 3 Zrotation Xrotation Yrotation
        JOINT FootLeft
        {
          OFFSET 4.242214 -7.530028 -0.473287
          CHANNELS 3 Zrotation Xrotation Yrotation
          End Site
          {
            OFFSET 0 0 0
          }
        }
      }
    }
  }
  JOINT HipRight
  {
    OFFSET 4.666815 -0.413546 1.615863
    CHANNELS 3 Zrotation Xrotation Yrotation
    JOINT KneeRight
    {
      OFFSET -4.300357 -29.168326 6.933837
      CHANNELS 3 Zrotation Xrotation Yrotation
      JOINT AnkleRight
      {
        OFFSET -10.241459 -27.821011 0.250017
        CHANNELS 3 Zrotation Xrotation Yrotation
        JOINT FootRight
        {
          OFFSET 3.425072 -8.269745 -2.783129
          CHANNELS 3 Zrotation Xrotation Yrotation
          End Site
          {
            OFFSET 0 0 0
          }
        }
      }
    }
  }
}
MOTION
Frames: 14
Frame Time: 0.033333
-44.728145 67.147664 330.335129 -0.000000 0.000000 -50.312427 -0.000000 0.000000 50.312427 -0.000000 0.000000 0.000000 -0.000000 0.000000 0.000000 0.000000 0.000000 0.000000 -0.000000 0.000000 0.000000 -0.000000 0.000000 0.000000 -0.000000 0.000000 0.000000 -0.000000 0.000000 0.000000 0.000000 0.000000 0.000000 0.000000 0.000000 0.000000 -0.000000 0.000000 0.000000 -0.000000 0.000000 0.000000 -0.000000 0.000000 0.000000 -0.000000 0.000000 0.000000 0.000000 0.000000 0.000000 0.000000 0.000000 0.000000 -0.000000 0.000000 50.312427 -0.000000 0.000000 0.000000 -0.000000 0.000000 0.000000 0.000000 0.000000 0.000000 -0.000000 0.000000 50.312427 -0.000000 0.000000 0.000000 -0.000000 0.000000 0.000000 0.000000 0.000000 0.000000
-44.780937 67.184589 330.378799 -0.023679 0.032350 -50.258773 0.040014 -0.002474 50.258781 -0.000000 0.000000 0.000000 -0.000000 0.000000 0.000000 0.000000 0.000000 0.000000 2.515992 0.386813 -0.573144 1.948117 -0.520913 0.156515 -10.946341 -9.226596 -3.833693 18.771421 16.723525 2.752931 0.000000 0.000000 0.000000 0.000000 0.000000 0.000000 1.042877 3.523391 0.366387 1.113695 -0.148109 -0.568954 -5.435993 2.115887 -0.994764 2.625821 -7.883541 1.916430 0.000000 0.000000 0.000000 0.000000 0.000000 0.000000 0.040014 -0.002474 50.258781 -0.000000 0.000000 0.000000 0.927784 0.057375 -0.026336 0.000000 0.000000 0.000000 0.040014 -0.002474 50.258781 -0.000000 0.000000 0.000000 -2.677502 1.898782 1.739128 0.000000 0.000000 0.000000
-44.820863 67.221107 330.412126 -0.037053 0.067299 -50.164490 0.075414 -0.014658 50.164521 -0.000000 0.000000 0.000000 0.734555 -0.359210 0.036615 0.000000 0.000000 0.000000 4.494189 0.715452 -1.043769 3.519353 -0.860824 0.335442 -20.176498 -15.894142 -7.533865 35.794586 30.059011 -0.727291 0.000000 0.000000 0.000000 0.000000 0.000000 0.000000 1.890821 6.103018 0.617756 2.054060 -0.345001 -1.003633 -12.589250 9.089490 -2.504707 8.934994 -18.870402 5.123197 0.000000 0.000000 0.000000 0.000000 0.000000 0.000000 0.075414 -0.014658 50.164521 -0.000000 0.000000 0.000000 1.664353 0.227474 0.020064 0.000000 0.000000 0.000000 0.075414 -0.014658 50.164521 -0.000000 0.000000 0.000000 -4.982823 3.501855 3.305876 0.000000 0.000000 0.000000
-44.847924 67.257219 330.435108 -0.040099 0.104851 -50.030313 0.106115 -0.036623 50.030383 -0.000000 0.000000 0.000000 1.026252 -0.497312 0.050714 0.000000 0.000000 0.000000 5.924236 0.997549 -1.402783 4.640055 -1.028559 0.512187 -27.253420 -20.143463 -10.550900 50.419007 38.295042 -7.048018 0.000000 0.000000 0.000000 0.000000 0.000000 0.000000 2.564782 7.779572 0.789778 2.805275 -0.599185 -1.342731 -23.448919 24.222165 -3.281197 23.709803 -34.909143 14.010503 0.000000 0.000000 0.000000 0.000000 0.000000 0.000000 0.106115 -0.036623 50.030383 -0.000000 0.000000 0.000000 2.210090 0.510419 0.137254 0.000000 0.000000 0.000000 -0.664041 0.512852 49.876733 0.076191 -0.942998 0.157478 -6.888735 4.832412 4.662271 0.000000 0.000000 0.000000
-44.862120 67.292926 330.447747 -0.032796 0.145008 -49.856680 0.131993 -0.068416 49.856800 -0.000000 0.000000 0.000000 1.267334 -0.607710 0.061446 0.000000 0.000000 0.000000 6.800396 1.242609 -1.643688 5.273925 -1.035521 0.668995 -32.004172 -22.381872 -12.578184 60.879413 42.302329 -12.612329 0.000000 0.000000 0.000000 0.000000 0.000000 0.000000 3.080251 8.593742 0.907810 3.361600 -0.919741 -1.616490 -42.748366 47.783029 2.717291 59.288143 -50.520090 41.430593 0.000000 0.000000 0.000000 0.000000 0.000000 0.000000 0.131993 -0.068416 49.856800 -0.000000 0.000000 0.000000 2.565415 0.905442 0.324313 0.000000 0.000000 0.000000 -0.815626 0.553610 49.662269 0.139317 -1.124930 0.199911 -8.380700 5.918119 5.782802 0.000000 0.000000 0.000000
-44.863451 67.328226 330.450042 -0.015123 0.187773 -49.643749 0.152882 -0.110066 49.643920 -0.000000 0.000000 0.000000 1.457692 -0.690400 0.068487 0.000000 0.000000 0.000000 7.117318 1.457142 -1.761276 5.404801 -0.891187 0.796505 -34.376127 -22.909348 -13.448229 65.829716 43.510421 -15.095737 0.000000 0.000000 0.000000 0.000000 0.000000 0.000000 3.447824 8.574071 0.988418 3.719643 -1.317815 -1.845876 -79.913934 65.471731 29.443588 102.434553 -48.543256 76.873093 0.000000 0.000000 0.000000 0.000000 0.000000 0.000000 0.870385 0.387413 49.683200 -0.843548 0.225214 -0.039359 2.730610 1.410921 0.581365 0.000000 0.000000 0.000000 -0.934904 0.530714 49.412618 0.221195 -1.242952 0.237694 -9.452715 6.785861 6.651645 0.000000 0.000000 0.000000
-44.797400 67.431944 330.420871 0.125955 0.283975 -49.662389 0.134929 -0.279822 49.662407 0.956399 0.262021 0.056656 0.592045 -1.036637 0.035448 0.000000 0.000000 0.000000 6.792098 0.994346 -1.875622 5.148291 -0.817892 0.817725 -32.894434 -20.912883 -11.642214 62.572198 41.196256 -12.530509 0.000000 0.000000 0.000000 0.000000 0.000000 0.000000 2.929660 6.113250 1.050730 4.414699 3.070055 -2.306998 -136.142465 55.338165 64.730663 136.009474 -27.079464 84.214868 0.000000 0.000000 0.000000 0.000000 0.000000 0.000000 1.033049 0.051572 49.768370 -0.833097 0.471594 -0.100745 2.796557 1.870292 0.820167 0.000000 0.000000 0.000000 -1.167024 0.301583 49.365163 0.406767 -1.366627 0.302343 -10.658797 8.256615 7.895567 0.000000 0.000000 0.000000
-44.754421 67.425132 330.459002 0.210554 0.286817 -49.420728 0.080874 -0.346491 49.420445 1.068778 0.245966 0.064711 0.532645 -1.075917 0.041882 0.000000 0.000000 0.000000 5.715913 0.933833 -1.666843 4.398649 -0.373070 0.768443 -29.805151 -16.176582 -8.689416 52.292200 35.272964 -5.764340 0.000000 0.000000 0.000000 0.000000 0.000000 0.000000 2.744151 4.622985 1.030138 4.774331 1.029248 -2.459738 -150.199986 65.001061 89.948046 132.801278 -28.445531 99.328393 0.000000 0.000000 0.000000 0.000000 0.000000 0.000000 0.911998 -0.050253 49.520735 -0.764894 0.439845 -0.094477 2.446692 3.042308 1.475274 0.000000 0.000000 0.000000 -1.371106 0.167598 49.073768 0.562862 -1.433794 0.351453 -11.296548 9.129579 8.613553 0.000000 0.000000 0.000000
-44.785473 67.390293 330.420152 0.133086 0.321418 -48.801176 0.154184 -0.311847 48.801222 0.999167 0.181345 0.062350 0.643954 -1.005108 0.035944 0.000000 0.000000 0.000000 3.407529 1.479363 -1.275831 3.428339 0.447600 0.860601 -25.998486 -11.912494 -6.509981 42.217991 28.867651 -1.042917 0.000000 0.000000 0.000000 0.000000 0.000000 0.000000 2.679976 2.673368 1.002468 3.821386 -2.105344 -2.417551 -124.932432 63.196270 68.978272 120.322956 -35.344577 85.240345 0.000000 0.000000 0.000000 0.000000 0.000000 0.000000 0.923149 0.053474 48.874266 -0.780953 0.338941 -0.069000 1.559817 4.638852 2.428430 0.000000 0.000000 0.000000 -1.175441 0.059326 48.472335 0.603718 -1.241467 0.332497 -10.258065 8.583107 7.876516 0.000000 0.000000 0.000000
-44.877819 67.332417 330.354757 -0.062964 0.338381 -47.785739 0.292924 -0.180725 47.786387 0.853389 0.063128 0.056570 0.939376 -0.748061 -0.034845 0.000000 0.000000 0.000000 0.243121 2.271313 -0.694999 1.411690 1.776664 1.159669 -19.235177 -7.791309 -4.365627 31.551711 23.374309 1.279933 0.000000 0.000000 0.000000 0.000000 0.000000 0.000000 2.561669 0.442507 0.934951 1.250646 -8.559529 -2.234202 -11.877886 22.151379 0.399485 16.892737 -20.521883 4.602788 0.000000 0.000000 0.000000 0.000000 0.000000 0.000000 0.974041 0.371022 47.802521 -0.866248 0.134002 -0.016252 0.709628 5.640979 3.079950 0.000000 0.000000 0.000000 -0.719165 0.016319 47.527638 0.538092 -0.879561 0.261427 -7.544552 6.305771 5.618026 0.000000 0.000000 0.000000
-45.011120 67.257240 330.277032 -0.386673 0.331192 -46.463593 0.506438 0.052187 46.464480 -0.000000 0.000000 0.000000 2.063569 -0.485427 -0.095755 0.000000 0.000000 0.000000 -3.731872 3.780043 0.205807 -1.892904 2.745938 1.771505 -14.536487 -4.179460 -3.073530 25.965535 15.881662 1.469688 0.000000 0.000000 0.000000 0.000000 0.000000 0.000000 2.989567 -1.850413 0.861418 -1.434892 -17.228346 -2.349099 2.048567 7.959455 3.960994 5.140264 4.202145 -6.339933 0.000000 0.000000 0.000000 0.000000 0.000000 0.000000 1.101315 0.912459 46.397736 -1.033211 -0.162459 0.060271 -0.014572 6.257683 3.517687 0.000000 0.000000 0.000000 0.506438 0.052187 46.464480 -0.000000 0.000000 0.000000 -4.229206 2.813632 2.711978 0.000000 0.000000 0.000000
-45.168206 67.184923 330.206668 -0.830103 0.290767 -44.935869 0.793001 0.380485 44.935343 -0.000000 0.000000 0.000000 2.443122 -0.122047 -0.295478 0.000000 0.000000 0.000000 -10.103110 5.980193 1.458758 -4.733564 2.721588 2.269638 -13.035782 -0.358658 -1.689113 23.773172 7.914486 -0.060755 0.000000 0.000000 0.000000 0.000000 0.000000 0.000000 2.535957 -3.795662 0.711633 -5.385524 -30.184213 -3.357397 7.801910 28.407595 -0.885452 2.412832 -9.553411 -1.131776 0.000000 0.000000 0.000000 0.000000 0.000000 0.000000 1.328647 1.574915 44.782171 -1.221579 -0.470387 0.139016 -0.667835 6.304610 3.632326 0.000000 0.000000 0.000000 0.793001 0.380485 44.935343 -0.000000 0.000000 0.000000 -4.682891 3.359814 3.127545 0.000000 0.000000 0.000000
-45.328303 67.136931 330.087999 -1.355822 0.278748 -43.455348 0.839205 -0.477023 43.436311 -0.168115 -0.201797 -0.048584 3.971397 1.216312 -0.522361 0.000000 0.000000 0.000000 -16.313439 9.058473 3.508411 -7.028458 2.516937 2.577201 -12.717000 0.837048 -1.868483 22.936965 2.848328 -2.241045 0.000000 0.000000 0.000000 0.000000 0.000000 0.000000 3.039409 -2.465886 0.507807 -11.779102 -50.084900 -7.654806 14.900685 43.894851 -4.921302 2.106023 -11.871561 -1.262296 0.000000 0.000000 0.000000 0.000000 0.000000 0.000000 1.758031 2.196669 43.237434 -1.428660 -0.669502 0.190505 -0.994331 5.733108 3.349744 0.000000 0.000000 0.000000 1.175957 0.730163 43.451153 -0.000000 0.000000 0.000000 -4.411254 2.962631 2.846799 0.000000 0.000000 0.000000
-45.380186 67.075638 329.946965 -1.790489 0.281051 -41.468375 0.681682 -1.036277 41.427331 -0.205706 -0.262964 -0.088371 5.035151 2.239697 -0.790721 0.000000 0.000000 0.000000 -23.400954 11.302835 5.967974 -8.818090 1.277594 2.153916 -15.422289 2.669001 -1.890015 24.117479 -4.426203 -5.869291 0.000000 0.000000 0.000000 0.000000 0.000000 0.000000 3.384283 -3.081801 0.347794 -27.864381 -65.088350 -19.642932 23.463965 46.796760 -7.138970 -0.844552 -11.834451 -2.025453 0.000000 0.000000 0.000000 0.000000 0.000000 0.000000 2.011720 2.750560 41.154164 -1.532887 -1.018259 0.276249 -1.068126 4.525203 2.666945 0.000000 0.000000 0.000000 2.379790 -0.007360 41.640939 0.016180 1.300214 -0.188551 -3.494718 1.356133 1.794941 0.000000 0.000000 0.000000
